<?xml version="1.0" encoding="UTF-8" standalone="no"?>
<svg
   xmlns:sketch="http://www.bohemiancoding.com/sketch/ns"
   xmlns:dc="http://purl.org/dc/elements/1.1/"
   xmlns:cc="http://creativecommons.org/ns#"
   xmlns:rdf="http://www.w3.org/1999/02/22-rdf-syntax-ns#"
   xmlns:svg="http://www.w3.org/2000/svg"
   xmlns="http://www.w3.org/2000/svg"
   xmlns:sodipodi="http://sodipodi.sourceforge.net/DTD/sodipodi-0.dtd"
   xmlns:inkscape="http://www.inkscape.org/namespaces/inkscape"
   width="40px"
   height="40px"
   viewBox="0 0 60 60"
   version="1.1"
   id="svg2"
   inkscape:version="0.91 r13725"
   sodipodi:docname="github-new.svg">
  <title
     id="title70517">GitHub</title>
  <metadata
     id="metadata11">
    <rdf:RDF>
      <cc:Work
         rdf:about="">
        <dc:format>image/svg+xml</dc:format>
        <dc:type
           rdf:resource="http://purl.org/dc/dcmitype/StillImage" />
        <dc:title>GitHub</dc:title>
      </cc:Work>
    </rdf:RDF>
  </metadata>
  <defs
     id="defs9" />
  <sodipodi:namedview
     pagecolor="#ffffff"
     bordercolor="#666666"
     borderopacity="1"
     objecttolerance="10"
     gridtolerance="10"
     guidetolerance="10"
     inkscape:pageopacity="0"
     inkscape:pageshadow="2"
     inkscape:window-width="1858"
     inkscape:window-height="1057"
     id="namedview7"
     showgrid="false"
     inkscape:snap-bbox="true"
     inkscape:bbox-nodes="true"
     inkscape:snap-bbox-edge-midpoints="true"
     inkscape:zoom="11.8"
     inkscape:cx="-0.16634358"
     inkscape:cy="29.102008"
     inkscape:window-x="54"
     inkscape:window-y="-8"
     inkscape:window-maximized="1"
     inkscape:current-layer="svg2" />
  <g
     id="g70502"
     transform="translate(0,-0.850001)">
    <path
       style="fill:#333333;fill-opacity:1"
       sketch:type="MSShapeGroup"
       id="Path"
       d="m 18.218424,31.935557 c 1.388427,2.515233 4.066106,4.080119 8.582305,4.51296 -0.644627,0.488017 -1.418941,1.414581 -1.525743,2.485744 -0.810551,0.523214 -2.440235,0.695399 -3.707556,0.296805 -1.775583,-0.559364 -2.455492,-4.066802 -5.114099,-3.56737 -0.575968,0.108448 -0.461538,0.487065 0.03624,0.808604 0.810551,0.523214 1.573422,1.177707 2.161787,2.57136 0.452001,1.070211 1.401776,2.982321 4.405583,2.982321 1.191987,0 2.027331,-0.142695 2.027331,-0.142695 0,0 0.02289,2.731179 0.02289,3.792828 0,1.224321 -1.656385,1.569643 -1.656385,2.158497 0,0.233068 0.548314,0.254948 0.988872,0.254948 0.870627,0 2.682447,-0.72489 2.682447,-1.997727 0,-1.011231 0.01621,-4.411172 0.01621,-5.005734 0,-1.300425 0.698981,-1.712337 0.698981,-1.712337 0,0 0.08678,6.941626 -0.166878,7.871996 -0.29752,1.093993 -0.83439,0.938932 -0.83439,1.426948 0,0.725841 2.180858,0.177893 2.903679,-1.415532 0.558803,-1.240494 0.314685,-8.04989 0.314685,-8.04989 l 0.595993,-0.01237 c 0,0 0.03338,3.117406 0.01335,4.542451 -0.02098,1.475465 -0.121106,3.341913 0.75715,4.221864 0.576922,0.57839 2.447864,1.593425 2.447864,0.665909 0,-0.539386 -1.025109,-0.982692 -1.025109,-2.441984 l 0,-6.714266 c 0.81818,0 0.695167,2.207965 0.695167,2.207965 l 0.06008,4.101999 c 0,0 -0.180228,1.494491 1.620149,2.120445 0.63509,0.221653 1.994908,0.281584 2.058799,-0.09037 0.06389,-0.372909 -1.637313,-0.927516 -1.65257,-2.085247 -0.0095,-0.705864 0.03147,-1.117776 0.03147,-4.185714 0,-3.067938 -0.412904,-4.201886 -1.85187,-5.10562 4.440865,-0.455672 7.18911,-1.551663 8.528903,-4.487276 0.104616,0.0034 0.545403,-1.371295 0.488238,-1.370821 0.30038,-1.108263 0.46249,-2.419152 0.494912,-3.971672 -0.0076,-4.209496 -2.027331,-5.698279 -2.415441,-6.397483 0.572153,-3.186851 -0.09536,-4.637581 -0.405276,-5.13511 -1.144307,-0.406205 -3.981236,1.044526 -5.530818,2.067172 -2.527012,-0.737257 -7.867112,-0.665909 -9.86965,0.19026 -3.695159,-2.639854 -5.650017,-2.235552 -5.650017,-2.235552 0,0 -1.263506,2.259334 -0.333756,5.565097 -1.215827,1.54586 -2.121737,2.639854 -2.121737,5.539412 0,1.63338 0.192625,3.095526 0.627462,4.372168 -0.05331,-1.31e-4 0.583186,1.367438 0.600761,1.367017 z m 0,0"
       inkscape:connector-curvature="0" />
    <path
       inkscape:connector-curvature="0"
       id="path70506"
       d="M 40.709471,15.507784 26.330566,36.384737 c 0.160677,0.01891 0.306085,0.04858 0.471679,0.06445 -0.644626,0.488018 -1.419565,1.413213 -1.526367,2.484375 -0.246976,0.159425 -0.583567,0.272327 -0.949219,0.360353 l -1.848633,2.683593 c 0.190969,0.01785 0.369447,0.04687 0.580078,0.04687 1.191986,0 2.027343,-0.140625 2.027343,-0.140625 0,0 0.02344,2.729367 0.02344,3.791016 0,1.224322 -1.658203,1.570326 -1.658203,2.159179 0,0.233069 0.549676,0.254883 0.990234,0.254883 0.870627,0 2.683593,-0.725209 2.683594,-1.998046 0,-1.011231 0.01465,-4.409345 0.01465,-5.003907 0,-1.300425 0.700195,-1.713867 0.700195,-1.713867 0,0 0.08667,6.9417 -0.166992,7.87207 -0.29752,1.093994 -0.834961,0.938742 -0.834961,1.426758 0,0.725841 2.180499,0.178386 2.90332,-1.415038 0.558803,-1.240496 0.313476,-8.050782 0.313476,-8.050782 l 0.597657,-0.01172 c 0,0 0.03174,3.118899 0.01172,4.543944 -0.02098,1.475464 -0.119466,3.341728 0.75879,4.221681 0.576921,0.578389 2.446289,1.592554 2.446289,0.665038 0,-0.539386 -1.02246,-0.984067 -1.02246,-2.443359 l 0,-6.711915 c 0.818179,0 0.694335,2.206055 0.694335,2.206055 l 0.05859,4.101562 c 0,0 -0.180259,1.49514 1.620117,2.121095 0.635091,0.221653 1.99568,0.281134 2.059571,-0.09082 0.06389,-0.372909 -1.637087,-0.925276 -1.652345,-2.083008 -0.0095,-0.705862 0.03223,-1.118584 0.03223,-4.186522 0,-3.06794 -0.412596,-4.202712 -1.851563,-5.106446 4.440866,-0.455673 7.188527,-1.552669 8.528319,-4.488282 0.104618,0.0034 0.543495,-1.368637 0.486329,-1.368163 0.300381,-1.108263 0.462696,-2.420138 0.495117,-3.972657 -0.0076,-4.209497 -2.025951,-5.699232 -2.414063,-6.398438 0.461066,-2.568094 0.119762,-3.973297 -0.193359,-4.696288 z"
       style="fill:#000000;fill-opacity:0.07843137" />
  </g>
</svg>
