<?xml version="1.0" encoding="UTF-8" standalone="no"?>
<svg
   xmlns:dc="http://purl.org/dc/elements/1.1/"
   xmlns:cc="http://creativecommons.org/ns#"
   xmlns:rdf="http://www.w3.org/1999/02/22-rdf-syntax-ns#"
   xmlns:svg="http://www.w3.org/2000/svg"
   xmlns="http://www.w3.org/2000/svg"
   xmlns:sodipodi="http://sodipodi.sourceforge.net/DTD/sodipodi-0.dtd"
   xmlns:inkscape="http://www.inkscape.org/namespaces/inkscape"
   width="40px"
   height="40px"
   viewBox="0 0 60 60"
   version="1.1"
   id="svg2"
   inkscape:version="0.91 r13725"
   sodipodi:docname="googleplus-new.svg">
  <metadata
     id="metadata19">
    <rdf:RDF>
      <cc:Work
         rdf:about="">
        <dc:format>image/svg+xml</dc:format>
        <dc:type
           rdf:resource="http://purl.org/dc/dcmitype/StillImage" />
        <dc:title>Google +</dc:title>
      </cc:Work>
    </rdf:RDF>
  </metadata>
  <sodipodi:namedview
     pagecolor="#ffffff"
     bordercolor="#666666"
     borderopacity="1"
     objecttolerance="10"
     gridtolerance="10"
     guidetolerance="10"
     inkscape:pageopacity="0"
     inkscape:pageshadow="2"
     inkscape:window-width="1858"
     inkscape:window-height="1057"
     id="namedview17"
     showgrid="false"
     inkscape:snap-bbox="true"
     inkscape:snap-bbox-edge-midpoints="false"
     inkscape:bbox-nodes="true"
     inkscape:bbox-paths="false"
     inkscape:snap-bbox-midpoints="false"
     showguides="true"
     inkscape:guide-bbox="true"
     inkscape:zoom="11.313709"
     inkscape:cx="8.7190709"
     inkscape:cy="19.160224"
     inkscape:window-x="54"
     inkscape:window-y="-8"
     inkscape:window-maximized="1"
     inkscape:current-layer="svg2" />
  <title
     id="title4">Google +</title>
  <description>Created with Sketch (http://www.bohemiancoding.com/sketch)</description>
  <defs
     id="defs6" />
  <style
     id="style70515"
     type="text/css">
	.st0{fill:#424242;}
</style>
  <path
     style="fill:#505050;fill-rule:evenodd;stroke:none;stroke-width:1.5px;stroke-linecap:butt;stroke-linejoin:miter;stroke-opacity:1;fill-opacity:1"
     d="M 15.21875 9.2734375 C 9.3651165 9.2734375 4.5898438 13.955591 4.5898438 19.716797 C 4.5898438 25.478002 9.3651165 30.162109 15.21875 30.162109 C 21.226424 30.162109 25.231972 26.095126 25.201172 20.056641 L 25.201172 18.023438 L 15.25 18.023438 L 15.25 22.058594 L 20.857422 22.058594 C 20.210443 24.677324 18.239499 26.125 15.189453 26.125 C 11.615654 26.125 8.6875 23.228975 8.6875 19.716797 C 8.6875 16.173807 11.584847 13.308594 15.189453 13.308594 C 16.760688 13.308594 18.299975 13.864177 19.470703 14.880859 L 22.181641 11.830078 C 20.271507 10.197223 17.775861 9.2734375 15.21875 9.2734375 z M 30.777344 14.912109 L 30.777344 17.992188 L 27.697266 17.992188 L 27.697266 20.457031 L 30.777344 20.457031 L 30.777344 23.537109 L 33.242188 23.537109 L 33.242188 20.457031 L 36.324219 20.457031 L 36.324219 17.992188 L 33.242188 17.992188 L 33.242188 14.912109 L 30.777344 14.912109 z "
     id="path70575"
     transform="scale(1.5,1.5)" />
  <path
     style="fill:#000000;fill-opacity:0.07999998;fill-rule:evenodd;stroke:none;stroke-width:1"
     d="m 46.166015,22.359301 0,4.620117 -4.620117,0 0,3.697265 4.620117,0 0,4.620117 3.697266,0 0,-4.620117 4.623047,0 0,-3.697266 -4.623047,0 0,-4.620117 -3.697266,0 z m -13.743163,4.666992 -4.239258,6.052733 3.10254,0 c -0.883007,3.574085 -3.426716,5.673303 -7.32129,6.026369 l -4.092773,5.847655 c 0.958742,0.177693 1.94607,0.28125 2.956055,0.28125 9.011511,0 15.019833,-6.100479 14.973633,-15.158203 l 0,-3.049805 -5.378907,0 z"
     id="path70587"
     inkscape:connector-curvature="0" />
</svg>
